<mxfile host="app.diagrams.net" modified="2023-10-16T09:52:37.645Z" agent="Mozilla/5.0 (Windows NT 10.0; Win64; x64) AppleWebKit/537.36 (KHTML, like Gecko) Chrome/118.0.0.0 Safari/537.36" version="22.0.4" etag="iPX8NHxdyuszFHLB4sUa" type="github">
  <diagram name="Pagina-1" id="9jYHE3bMsyxbNvYxWQ9D">
    <mxGraphModel>
      <root>
        <mxCell id="0" />
        <mxCell id="1" parent="0" />
      </root>
    </mxGraphModel>
  </diagram>
</mxfile>
